<?xml version="1.0" encoding="UTF-8" standalone="no"?>
<svg width="1440px" height="262px" viewBox="0 0 1440 262" version="1.1" xmlns="http://www.w3.org/2000/svg" xmlns:xlink="http://www.w3.org/1999/xlink">
    <!-- Generator: Sketch 39.1 (31720) - http://www.bohemiancoding.com/sketch -->
    <title>Desktop HD</title>
    <desc>Created with Sketch.</desc>
    <defs></defs>
    <g id="Page-1" stroke="none" stroke-width="1" fill="none" fill-rule="evenodd">
        <g id="Desktop-HD">
            <path d="M307.956691,198 C291.887614,217.468544 266.74513,230 238.486111,230 C210.227093,230 185.084608,217.468544 169.015531,198 L-539,198 L-539,97 L169.015531,97 C185.084608,77.5314565 210.227093,65 238.486111,65 C266.74513,65 291.887614,77.5314565 307.956691,97 L915,97 L915,198 L307.956691,198 Z" id="Shadow" fill="#D24D34"></path>
            <path d="M311.801674,194 C295.887321,213.468544 270.986924,226 243,226 C215.013076,226 190.112679,213.468544 174.198326,194 L-527,194 L-527,93 L174.198326,93 C190.112679,73.5314565 215.013076,61 243,61 C270.986924,61 295.887321,73.5314565 311.801674,93 L913,93 L913,194 L311.801674,194 Z" id="Combined-Shape-Copy" fill="#F15E42"></path>
            <rect id="Shadow" fill="#D24D34" x="912" y="93" width="539" height="105"></rect>
            <rect id="Rectangle-2" fill="#F15E42" x="912" y="93" width="539" height="101"></rect>
        </g>
    </g>
</svg>