<?xml version="1.0" encoding="UTF-8" standalone="no"?>
<svg width="1024px" height="158px" viewBox="0 0 1024 158" version="1.1" xmlns="http://www.w3.org/2000/svg" xmlns:xlink="http://www.w3.org/1999/xlink">
    <!-- Generator: Sketch 39.1 (31720) - http://www.bohemiancoding.com/sketch -->
    <title>1024</title>
    <desc>Created with Sketch.</desc>
    <defs></defs>
    <g id="Page-1" stroke="none" stroke-width="1" fill="none" fill-rule="evenodd">
        <g id="1024">
            <g id="Logo-Strip" transform="translate(-5.000000, 15.000000)">
                <path d="M596.481191,99.0471204 C585.164317,113.011468 567.457368,122 547.555556,122 C527.653743,122 509.946794,113.011468 498.62992,99.0471204 L0,99.0471204 L0,26.6020942 L498.62992,26.6020942 C509.946794,12.6377463 527.653743,3.64921466 547.555556,3.64921466 C567.457368,3.64921466 585.164317,12.6377463 596.481191,26.6020942 L1024,26.6020942 L1024,99.0471204 L596.481191,99.0471204 Z" id="Shadow" fill="#D24D34"></path>
                <path d="M601.481191,96.1780105 C590.164317,110.142358 572.457368,119.13089 552.555556,119.13089 C532.653743,119.13089 514.946794,110.142358 503.62992,96.1780105 L5,96.1780105 L5,23.7329843 L503.62992,23.7329843 C514.946794,9.76863633 532.653743,0.780104712 552.555556,0.780104712 C572.457368,0.780104712 590.164317,9.76863633 601.481191,23.7329843 L1029,23.7329843 L1029,96.1780105 L601.481191,96.1780105 Z" id="Combined-Shape-Copy" fill="#F15E42"></path>
            </g>
        </g>
    </g>
</svg>